<mxfile host="app.diagrams.net" modified="2024-01-08T10:52:28.262Z" agent="Mozilla/5.0 (Windows NT 10.0; Win64; x64) AppleWebKit/537.36 (KHTML, like Gecko) Chrome/120.0.0.0 Safari/537.36" etag="EKYytV0ECo5ALZaHPL2g" version="21.5.0" type="github">
  <diagram name="Page-1" id="rORFhXOkc0rDGhYF9sxe">
    <mxGraphModel dx="1434" dy="1941" grid="1" gridSize="10" guides="1" tooltips="1" connect="1" arrows="1" fold="1" page="1" pageScale="1" pageWidth="827" pageHeight="1169" math="0" shadow="0">
      <root>
        <mxCell id="0" />
        <mxCell id="1" parent="0" />
        <mxCell id="Zn3K7GQTgPLy571pBI7w-6" value="&lt;br&gt;&lt;br&gt;&lt;br&gt;&lt;br&gt;- id&lt;br&gt;- name&lt;br&gt;- description&lt;br&gt;- createdAt&lt;br&gt;- updatedAt&lt;br&gt;- category_id&lt;br&gt;&lt;br&gt;&lt;br&gt;&lt;br&gt;" style="whiteSpace=wrap;html=1;aspect=fixed;align=left;fontSize=36;fontStyle=0" parent="1" vertex="1">
          <mxGeometry x="1120" y="30" width="490" height="490" as="geometry" />
        </mxCell>
        <mxCell id="Zn3K7GQTgPLy571pBI7w-1" value="&lt;br&gt;- id&lt;br&gt;- name&lt;br&gt;- photos&lt;br&gt;- price&lt;br&gt;- description&lt;br&gt;- quantity&lt;br&gt;- createdAt&lt;br&gt;- updatedAt" style="whiteSpace=wrap;html=1;aspect=fixed;align=left;fontSize=36;fontStyle=0;labelBackgroundColor=default;" parent="1" vertex="1">
          <mxGeometry x="30" y="40" width="470" height="470" as="geometry" />
        </mxCell>
        <mxCell id="Zn3K7GQTgPLy571pBI7w-2" value="&lt;font size=&quot;3&quot;&gt;Product&lt;/font&gt;" style="rounded=0;whiteSpace=wrap;html=1;" parent="1" vertex="1">
          <mxGeometry x="30" y="40" width="470" height="60" as="geometry" />
        </mxCell>
        <mxCell id="Zn3K7GQTgPLy571pBI7w-3" value="&lt;font size=&quot;3&quot;&gt;Category&lt;/font&gt;" style="rounded=0;whiteSpace=wrap;html=1;" parent="1" vertex="1">
          <mxGeometry x="1120" y="30" width="490" height="70" as="geometry" />
        </mxCell>
        <mxCell id="58mDzejDTSW2NTJH7ohj-7" value="" style="endArrow=classic;html=1;rounded=0;strokeWidth=12;" parent="1" edge="1">
          <mxGeometry relative="1" as="geometry">
            <mxPoint x="610" y="274.29" as="sourcePoint" />
            <mxPoint x="1000" y="274.29" as="targetPoint" />
          </mxGeometry>
        </mxCell>
        <mxCell id="58mDzejDTSW2NTJH7ohj-8" value="HAVE" style="edgeLabel;resizable=0;html=1;align=center;verticalAlign=middle;fontSize=35;" parent="58mDzejDTSW2NTJH7ohj-7" connectable="0" vertex="1">
          <mxGeometry relative="1" as="geometry">
            <mxPoint y="1" as="offset" />
          </mxGeometry>
        </mxCell>
        <mxCell id="58mDzejDTSW2NTJH7ohj-9" value="&lt;span style=&quot;font-size: 32px;&quot;&gt;1, N&lt;/span&gt;" style="text;strokeColor=none;align=center;fillColor=none;html=1;verticalAlign=middle;whiteSpace=wrap;rounded=0;" parent="1" vertex="1">
          <mxGeometry x="440" y="30" width="210" height="90" as="geometry" />
        </mxCell>
        <mxCell id="58mDzejDTSW2NTJH7ohj-10" value="&lt;span style=&quot;font-size: 32px;&quot;&gt;0, N&lt;/span&gt;" style="text;strokeColor=none;align=center;fillColor=none;html=1;verticalAlign=middle;whiteSpace=wrap;rounded=0;" parent="1" vertex="1">
          <mxGeometry x="950" y="20" width="210" height="90" as="geometry" />
        </mxCell>
      </root>
    </mxGraphModel>
  </diagram>
</mxfile>
